<?xml version="1.0" encoding="UTF-8"?>
<svg id="Layer_2" data-name="Layer 2" xmlns="http://www.w3.org/2000/svg" viewBox="0 0 749.05 494.29">
  <g id="Layer_1-2" data-name="Layer 1">
    <g>
      <path d="M16.13,494.29h-6.72c-7.99-7.97,28.36-17.7,32.95-18.73l19.3-4.3c13.26-2.96,19.83-4.14,33.16-6.53l41.67-7.47c3.93-.24,7.85-.14,11.75-1.61,3.23-1.22,6.45-1,9.83-1.51l38.36-5.76,29.85-4.14,21.36-2.43,44.12-4.9,51.78-5.72,17.3-1.62,38.27-3.27,30.05-2.55,41.47-3.47c14.22-1.19,27.98-1.78,42.21-2.64l14.4-.87,21.79-1.46,65.57-2.53,77.48-.05c17.45-.01,34.11.21,51.24,1.46,1.91.14,3.42,1.69,5.74,1.28-.92,1.25-.85,2.12-.11,3.2-1.77-.21-2.6,1.76-3.85,1.92-5.41.69-26.67.18-35.09.37l-36.39.81-110.83,5.64-49.14,3.69-17.76,1.55-30.87,2.13-75.59,6.92-12.18,1.38-83.41,8.34-42.44,4.64-108.99,13.11c-33.71,4.06-66.33,10.41-99.47,17-4.22.84-24.76,5.75-26.8,8.12Z"/>
      <path d="M712.17,170.3c1.08-.12,7.37-1.6,9.32-1.89.43-.06.82-.32,1.02-.71.24-.47.45-.93.77-1.06.77-.32,1.45-.06,1.58.26.1.24-.68.65-.57,1.1.38,1.58,1.39,2.47,2.87,3.07.72.29,1.15,1.1.84,1.82-.75,1.73.63,3.64.25,4.83-1.22,3.8-2.95,9.73-5.68,12.77l-6.07,6.79c-.83.92-4.18,7.46-12.01,9.93-3.92,1.24-7.62,3.76-11.8,4.24-6.43.74-12.04-1.91-17.62-4.34-6.34-2.76-13.34-10.38-15.63-16.19s-4.09-10.95-5.67-17.3c-.23-.93-1.33-1.32-2.11-.76l-8.24,6.04c-3.71,2.72-5.04,6.34-4.75,7.19.06.17.14.32.23.46.37.54.35,1.27-.12,1.72-2,1.87-2.5,7.38-2.74,7.75-1.11,1.69-1.53,3.5-2.53,5.27-2.82,5.01-11.73,11.92-19.66,7.76-2.07-1.09-5.4-1.32-6.74-3.57-7.3-12.27-6.36-27.72-6.02-42.78.02-.99-1.03-1.73-1.91-1.26-1.5.81,1.5,2.99-6.17,9.2-13.82,11.19-28.59,20.47-43.36,30.35-14.96,10.02-37.54,22.93-55.92,21.86-6.74-.39-13.98-2.74-19.69-5.97-4.51-2.55-10.27-10.66-11.01-16.89-.24-2.02-.94-5.3-.46-6.9.8-2.68.83-5.98,1.66-8.16,2.15-5.63,3.3-10.9,5.74-16.05.99-2.08,1.41-3.89,1.73-6.03.2-1.32,3.12-2.16,1.02-4.31-4.42,5.95-10.23,9.89-16.3,13.91-8.52,5.64-17.44,8.75-27.26,11.16-6.16,1.51-11.18,1.88-17.53,1.07-5.36-.69-12.47.11-16.81-4.58-4.42-4.78,4.22-13.9,10.14-16.54.64-.29,1.13-1.02.83-1.65-.11-.24.14-.34.76-.16.28.08.58.05.85-.06,14.52-6.08,27.92-5.37,41.06-14.15.69-.46.83-1.44.26-2.05-7.94-8.39-17.49-14.09-27.74-18.68-6.39-2.87-13.38-3.85-20.35-3.95-9.23-.14-10.02,17.17-10.67,22.1-1.85,14.1,1.49,28.68,4.78,42.18l2.43,9.96c.53,2.19,1.25,4.57,1.29,7.07l.04,2.57c0,.67-.47,1.28-1.14,1.35-1.45.15-2.34,6.03-2.67,6.63-2,3.66-12.69,9.77-16.76,7.5-1.44-.8-2.02-1.88-4.06-1.72-1.01-.02-3.23-1.13-3.86-1.97-4.45-6.44-6.16-14.59-7.22-22.3-.49-3.57-.41-6.75-1.8-10.19-.39-.97-1.7-1.12-2.32-.28-4.13,5.53-14.76,14.1-18.72,16.06-4.98,2.47-14.85,2.62-20.23,1.81-2.53-.39-5.5-2.94-8.25-2.32-.19.04-.37.14-.53.27l-15.19,12.14c-17.29,13.82-45.77,8.77-53.62-7.41-2.85-5.88-2.97-11.91-3.26-18.76-.06-1.32-1.76-1.78-2.48-.67-5.37,8.26-12.92,13.6-21.6,17.75-21.4,10.23-25.42,8.46-48.17,11.19-17.2,2.06-34.14,1.66-51.09-2.49-6.84-1.67-13.09-3.36-19.55-6.08-10.01-4.21-19.33-8.79-28.07-15.27-3.9-2.89-7.99-4.89-11.19-8.79-.24-.29-1.5-.06-1.89-.41s-.03-1.14-.34-1.76c-.68-1.37-7.74-6.42-10.21-11.37l-5.92-11.84c-4.71-9.43-4.62-20.21.53-29.45,2.2-3.93,5.87-6.32,8.94-9.41,3.81-3.83,7-5.35,12.01-7.89.53-.27,1.19-.17,1.59.27,1.22,1.32,2.66,2.26,4.42,3.04.88.39,1.06,1.57.34,2.22l-.06.05c-.6.53-.6,1.48,0,2,.31.27.56.54.67.82.41,1.1-.94,1.78-1.16,2.54-1.14,3.78-3.46,5.97-6.55,8.17-5.57,3.98,13.22,23.63,14.08,24.51.03.03.05.05.07.08l2.88,3.48s.05.06.08.09l4.53,4.6c2.82,2.87,18.46,14.24,22.48,16.06,7.58,3.44,14.65,7.18,22.7,8.95s15.89,2.86,24.44,2.83l11.33-.04c12.38-.04,23.12-.45,34.85-4.61,7.77-2.75,13.59-4.92,20.92-9.13,3.31-1.9,5.1-5.72,3.44-9.77-1.23-2.99-2.34-6.54-4.21-9.28-5.1-7.46-12.05-12.76-19.38-17.73-5.12-3.47-10.39-5.86-16.02-8.37-3.57-1.6-6.74-3.7-10.48-5.1-22.57-8.46-57.14-22.87-76.08-36.94-2.98-2.21-5.86-5.16-8.38-7.74-5.45-5.57-7.03-13.39-7.41-20.8-.07-1.41,1.38-2.18,1.49-3.39.3-3.25,1.91-5.24,4.12-7.6,1.19-1.27,2.12-3.52,3.77-4.82l8.59-6.72c-3.28,2.57,18.69-10.65,14.88-9.03l16.1-6.83c7.78-3.3,28.63-10.93,36.87-13.63l19.18-6.29c.27.76.03,1.15.07,1.34.06.3.59.3.77.23s.42-1.03.61-1c2.02.32,3.99.31,6.41-.54.34-.03.49-.08.49-.14.07-.54.18-1.05.73-1.09,2.76-.17,5.62-.52,8.35-1.34,4.47-1.35,7.19,1.13,10.24,3.02,4.37,2.72,5.84,5.44,6.02,10.28.09,2.46.74,3.66-.78,6.37-3.01,5.37-7.2,10.33-13.99,11.01-1.14.11-2.52-.29-3.3-.79-1.1-.71-.98-2.47-1.52-3.72-1.28-2.92-4.89-1.78-7.29-1.91-10.45-.53-31.12,5.43-41.2,9.45l-20.86,8.33c-6.15,2.46-20.7,11.35-19.73,19.11.18,1.41,2.42,1.81,3.33,2.99,1.94,2.51,4.29,3.65,6.73,5.29,1.08.72,1.67,1.84,3.48,2.63,5.65,2.46,9.97,7.54,16.27,9.9,3.11,1.17,6.56,2.91,9.2,4.86,5.42,4.02,15.71,6.54,16.32,7.18,2.58,2.72,6.2,2.76,9.19,4.36l7.89,4.23,10.34,5.05c3.88,1.89,7.85,4.44,11.5,7.1l18.5,13.47c7.38,5.38,15.59,15.51,19.23,25.34.46,1.25,2.28,1.12,2.57-.18,1.92-8.48,4.74-19.24,7.1-26.29,1.68-5.03,4.07-8.93,8.92-11.61,1.84-1.01,4.44-4.1,6.74-4.03,1.07.06,3.46,1,4.43,1.5,1.74,1.11,2.4,4.5,5.14,5.31s-.48,4.06-.28,6.51c.05.59-.31,1.13-.87,1.34-.21.08-.38.16-.46.26-.3.35-.15.87.06,1.47.23.63-.03,1.35-.62,1.64-1.7.85-4.35,1.07-5.09,2.87-2.27,5.53-1.4,11.71-2.17,17.51-.59,4.38-.42,8.26-.3,12.58l.32,11.6c.13,4.59.93,8.96,4.99,12.29,3.54,2.89,8.53.18,12.62-1.1l8.25-2.58c1.48-.46,2.48-.35,3.43-1.96.73-1.22,3.92-1.82,4.05-3.84.28-4.6.32-8.97,1.05-13.57,1.45-9.14,7.39-21.24,14.02-28.11l3.83-3.97c1.18-1.23,3.2-1.92,4.53-3.16,3.62-3.4,7.76-5.6,12.33-7.34.46-.17.98-.07,1.36.24,4.34,3.52,7.65,3.05,7.01,10.05-.18,2.03.04,4.17-1.17,6.09-1.42,2.27-1.38,4.6-1.8,6.94-.98,5.52-10.31,19.94-8.27,27.3,1.35,4.86,6.59,4.68,10.08,5.12,4.34.56,8.52,1.78,13.02.11.78-.29,2.62.59,3.23-.07s1.47-1.86,1.13-3.18c-.95-3.63.56-7.69.45-10.9-.3-8.85,6.23-12.85,9.97-18.85,4.74-7.59,4.77-17.91,10.71-25.26,2.79-3.45,6.51-6.14,9.72-9.19l4.07-3.86c4.02-3.81,10.51-4.9,16.21-5.41,12.85-1.15,38.78,7.8,49.19,15.9l8.32,6.48c2.25,1.76,2.66,3.2,3.94,5.37,3.34,5.66,6.29,11.24,4.53,18.09-.07.26-.15.52-.25.8-.57,1.62,1.77,2.57,2.49,1.02,6.2-13.43,14.39-25.32,26.23-33.58l16.16-11.28c3.87-2.7,10.09-4.32,14.5-4.96,5.06-.74,8.15,1.1,11.92,3.44,3.55,2.21,5.05,3.93,5.67,8.29.29,2.08.75,3.57.16,5.96-.93,3.82-1.5,7.49-3.45,11.32-4.98,9.81-10.75,19.45-18.92,26.97l-12.24,11.28c-6.83,6.29-14.78,11.27-23.36,14.74-2.31.93-4.16,1.32-3.75,4.12.8,5.5,10.25,1.63,14.28-.47.5-.26,1.1-.19,1.51.19.13.12.26.22.37.23,1.35.21,1.49-2.51,1.95-2.55.25-.02.47.1.68.32.46.46,1.21.54,1.74.16,1.75-1.24,3.91-1.7,5.84-2.58,1.73-.79,3.59-2.66,5.75-2.75,5.95-.23,10.39-4.13,11.04-4.4l5.16-2.16c1.23-.52,3.28-.3,4.47-1.9,1.56-2.08,4.24-2.7,6.31-3.65-2.74,1.25,11.59-6.74,9.48-5.41l6.07-3.84c2.44-1.55,4.05-2.25,6.34-3.62.76-.45,1.18-1.27,1.64-1.93.1-.14.3-.26,1.03-.26,1.48-.3,1.76-.27,2.55-.92.65-.54.63-.31,1.67-.51l.74-.14c.86-.3.68-.11,1.25-.57,2.53-2.03,8.87-4.02,9.67-3.96,1.13.09,1.73,1.66,2.74,2.13,1.59.75,2.94.8,4.11,2.48.87,1.25,1.2,2.45.81,3.83-.15.51-.03,1.07.37,1.41.15.13.25.24.26.33.03.4-.77.67-1.15,1.27-.42.67,2.76,1.42,2.9.43,1.46-10.38,3.9-19.92,7.73-29.5,1.25-3.13,2.22-5.71,1.13-9.26-1.28-4.17.06-9.91,4.28-11.77,2.02-.89,2.88-1.61,4.21-3.25,1.5-1.83,5.37-1.58,7.21-3.25,4.53-4.11,9.24-7.22,14.17-10.65,10.38-7.22,22.74-9.04,34.28-3,6.49,3.39,12.53,9.71,13.7,17.21.9,5.81.92,12.06-.84,17.44l-4,12.18c-1.94,5.91-6.77,10.58-9.67,16.18-.14.27-.19.59-.13.9.87,4.46,3.71,8.02,5.27,11.98,1.27,3.23,2.32,6.32,3.9,9.45.28.55,1.2.45,1.54.56.66.21.05,1.55.46,1.99,3.41,3.72,8.89,2.44,13.11,1.55,4.78-1,9.03-1.21,13.36-3.58.15-.08.31-.14.47-.16ZM659.22,129.37c.5.33,1.19.28,1.63-.12,1.59-1.45,2.22-3.36,3.5-4.8s3.1-2,3.92-4.02c1.17-2.89,3.55-5.28,4.32-8.51.73-3.1.42-8.08-1.9-10.61-1.74-1.9-5.17-3.84-7.84-4.44-17.31-3.88-29.92,14.83-29.73,17.68.41,6.35,1.51,12.35,2.27,18.52.21,1.69,2.67-.33,3.34-.73.93-.55,2.87-.57,3.64-1.82.23-.38.68-.57,1.12-.58,4.86-.11,8.02-5.68,15.73-.58ZM533.76,121.47c-7.69,1.17-20.75,15.92-24.74,23.56-.6,1.14.57,2.41,1.74,1.87,9.09-4.24,20.8-14.53,24.44-23.61.38-.95-.43-1.98-1.45-1.82Z"/>
      <path d="M232.69,390.15c-10.72,3.08-20.04,6.55-30.83,8.39-18.76,3.2-37.06,6.32-55.89,8.15l-9.25.9-32.3.62c-5.88.11-11.18-.18-16.97-.4l-9.3-.37c-1.11-.04-3.46-.33-4.51-.5l-7.52-1.17c-3.82-.59-6.72-1.16-10.59-1.18-2.61-.02-6.26-1.56-9.38-2.07-10.27-1.67-19.61-5.09-29.07-8.97-10.55-4.33-5.58-3.86-12.98-8.42.53-2.06-1.1-3.23-2.03-5.04-4.1-7.93-.77-7.61-1.2-15.27,2.98.01,4.11-3.13,5.81-4.76.78-.75,1.98-1.46,2.76-2.54.45-.62,2.05.61,2.49.26.58-.46,1.37-4.51,1.37-4.43-.03-.55-.97-.62-1.38-1.22l6.86-.38c.82-5.07,9.93-.2,12.87.49,1.44.34,2.42-.95,4.16.66,1.38,1.28,5.6.38,7.18,2.46,1.15,1.51,1.35,3.63,4.4,4.59l12.47,3.9c3.69,1.15,7.49,2.24,11.22,3.04l9.61,2.08c2.45.53,4,.63,6.59,1.19l10.06,2.19c2.09.45,4.94-.39,6.54.07,5.35,1.54,10.41.72,15.63.83l7.44.16c2.52.05,5,.82,7.79.76,20.96-.4,41.8-1.06,62.71-3.83l29.12-3.86c4.7-.62,9.15-.67,13.98-2.26,4.45-1.46,9.46-1.4,13.59-4.19-1.43-6.26-15.15-15.16-20.11-18.26l-15.66-9.78c-7.03-4.39-13.67-8.21-21.25-11.69-7.72-3.55-14.98-7.39-23.38-9.81-8.81-2.53-17.52-5.34-26.61-6.92-8.52-1.48-16.37-3.22-24.67-5.41-7.26-1.92-14.24-3.2-20.49-7.4-6.84-4.6-10.15-11.83-7.93-19.91,1.01-3.7,2.14-6.78,5.04-9.67,3.44-3.44,6.01-8.56,10.6-11.49,17.01-10.85,36.9-16.71,56.84-21.05,4.28-.93,7.26-1.85,11.6-.73,5.52,1.43,11.05-2.72,20.94,9.93-.39,1.6-1.28,3.5.26,5.11,1.41,1.47-.91,3.53-1.11,4.88-1.4,9.3-16.68,22.94-22.14,18.88-3.17-2.36.05-9.68-.14-12.35-.63-2.67-17.72-1.32-20.96-.95-14.15,1.64-30.22,4.15-40.88,14.35.19,3.86,22.3,11.58,25.2,12.24,6.23,1.4,11.9,3.67,18,5.49,13.95,4.17,27.17,8.78,40.42,14.81,10.06,4.58,19.06,9.94,28.69,15.02,4.45,2.35,8.53,4.69,12.83,7.34,5.93,3.66,11.74,6.57,17.73,11.3,2.08-9.5,3.95-15.77,8.95-22.8l4.59-6.47c1.47-2.07,3.2-3.23,4.7-4.91,6.97-7.74,15.38-13.6,23.97-18.44,3.76-2.12,6.98-4.06,11.31-4.86l11.43-2.11c-.28,1-1.21.81-1.64,1.35,2.54.49,4.03,1.07,6.41-.05-1.65-1.16-2.27-1.24-.29-1.76.88,1.76,2.04,1.43,3.29,1.46,11.57.29,14.15,12.21,21,3.51,2.24.09,1.64.74-.28,1.53,1.26,1.33,2.29.15,3.62-.42,2.37-1.03,5.16-.3,7.47-.88,2.72-.68,4.66,1.14,7.02,1.78,3.96,1.09,6.69,2.87,9.96,4.98,2.23,1.43,4.38,2.01,6.51,3.92,11.35,10.19,13.22,21.32,5.46,34.85-3.16,5.51-6.51,11.03-11.11,15.55-17.38,17.08-40.41,32.76-63.69,40.4-5.38,1.76-10.95,2.04-16.5,2.82-8.19,1.15-21.32-3.38-28.41-7.63-2.13-1.28-2.7-4.31-5.63-5.36-8.12,10.19-19.68,16.03-32.38,19.68ZM367.63,323.84c.82-1.29,1.8-2.96.71-4.22-2.55-2.96-17.15-4.01-23.19-5.31-4.43-.95-10.03-3.31-14.38-2.36-4.8,1.05-16.49,14.05-20.88,10.33-3.36-2.84-.72-9.68,3.57-10.77,2.5-4.95,6.8-6.74,11.71-10.38-4.91-1.99-9.88.41-14.54,2.48-13.59,6.04-29.16,19.16-26.27,35.74,1.99,11.41,7.49,13.31,17.87,15.27,5.76,1.09,10.34.05,15.47-1.17,12.27-2.91,18.31-4.97,29.34-12.31,7.51-4.99,15.51-9.29,20.6-17.32Z"/>
      <path d="M675.94,310.13c5.15-1.63,11.63-4.23,16.6-3.28,2.56.49,6.42.44,7.02,3.25.25,1.17-.6,1.45-1.29,2.32-.59.75.44,1.72.53,2.6-.75.02-1.6-1.01-2.13-.19-.26.41.79,1.25.8,1.76.05,3.9-7.7,3.17-7.32,3.08-7.62,1.78-13.95,6.25-20.81,9.92l-20.42,10.91-22.36,11.86c-4.69,2.49-9.4,4.86-14.44,6.78-10.5,4.01-20.98,7.26-32.03,9.11-9.55,1.59-18.42.25-26.81-4.16-1.96-1.03-4.79-2.08-5.85-4.15-1.14-2.25-3.23-3.51-4.45-5.44-4.17-6.63-4.16-14.71-2.45-22.16l2.77-12.02c.87-3.76,2.41-7.32,4.14-10.94,1.85-3.87,4.81-7.77,7.54-11.34l4.16-5.44c2.64-3.46,6.56-5.25,9.3-8.29-.2-1.27.21-1.49,1.06-.42l3.63-3.56c1.9.15,2.66-.99,4.19-1.99,11.07-7.31,29.59-12.97,42.69-6.97-.57-.26,6.63,5.46,5.53,7.72-2.58,5.28,1.48,9.29-11.42,15.9-2.04,1.05-7.61,5.53-9.55,3.45-.53-.57-.48-1.88.08-2.57l3.35-4.11c-7.77-1.08-16.31,6.35-21.31,11.88-2.49,2.75-5.59,4.73-7.78,7.81-3.24,4.54-6.39,8.78-7.67,14.18l-1.29,5.46c-.39,1.63-.97,2.53-.59,4.3.16.76-.16,1.58.39,2.27.51.64,1.58.24,2.25.54,3.94,1.79,7.31.7,11.03.31,8.76-.93,16.86-3.4,25-6.69.26-.11,10.71-3.06,10.86-3.09l6.41-1.35,3.04-1.3c7.27-3.12,11.38-3.53,18.28-6.21l18.63-7.22c2.2-.85,4.88-.59,6.86-1.72,1.27-.72,2.4-.39,3.8-.83Z"/>
      <path d="M495.34,312.39c-1.01,8.94-8.93,26.06-12.52,34.51-6.33,14.89-14.37,29.55-30.56,35.49-5.69,2.09-17.14-2.95-20.02-4.9-6.18-4.18-10.79-13.21-14.15-20.11-4.85-9.96-6.63-20.43-9.08-31.91-10.57,15.37-4.34,28.79-18.51,37.69-1.63,1.02-3.48,2.42-5.01,2.28-4.6-.42-11.81-11.49-1.68-26.28,7.03-10.27,15.23-31.74,23.91-40.33,3.13-3.09,6.81-5.5,9.6-9.06,3.95-5.04,8.53-.36,9.2-.46l1.92-.29c.61-.09,1.1,1.29,1.34,2.22l6.74,25.76c.58,2.21,2.19,4.67,2.42,6.8.49,4.46,1.36,7.89,3.59,12,1.73,3.18,7.71,18.66,12.31,17.39,4.18-1.16,7.22-6.47,9.39-10.26,6.8-11.9,13.48-23.22,19.63-35.45,2.45-4.87,2.31-11.02,5.76-15.43-.36.45,8.02-5.99,8.38-6.06.49-.1.78.53.9,1.64.86,2.33.98.84,2.95-.76.75,11.08-5.88,20-6.5,25.51Z"/>
      <path d="M520.05,344.52c-3.68,8.98-15.2,29.16-24.82,30.69-1.72-3.14-.3-6.4.26-9.51.34-1.87-2.29-1.1-3.23-1.23-10.14-1.41,4.17-29.74,6.22-37.83,2.03-8.03,4.69-15.29,8.32-22.8,1.75-3.61,2.66-9.22,6.64-10.91,3.12-1.33,4.7-2.96,6.55-5.71,9.35-8.3,4.8-2.19,11.08-5.59,1.79-.97,3.63-.61,4.47-3.51.46-1.58,2.72-3.98,4.34-3.38.55.2.64,1.15.95,1.44s.54-.12,1.21-1.29c-.25,2.67,2.64,2.31,4.15,3.76s.04,4.73.08,6.67c1.25.75,1.82-.59,3.29-.42-2.42.8-.91,2.69-1.3,4.45-.98,4.42-2.42,9.36-4.68,13.18-3.77,6.4,1.7,4.83-6.15,18.15.46.64,1.13,1.03.83,1.26-.38.29-.38,1.82-.67,1.58-.5-.42-.75-1.59-1.12-1.71l-3.19,7.24c-.62,1.41,1.04,3.14.15,4.42-.77,1.11-2.34,1.66-3.39,2.89l-5.66,6.57c-.73.85-3.57-.24-4.32,1.6Z"/>
    </g>
  </g>
</svg>
