<?xml version="1.0" standalone="no"?>
<!DOCTYPE svg PUBLIC "-//W3C//DTD SVG 20010904//EN"
 "http://www.w3.org/TR/2001/REC-SVG-20010904/DTD/svg10.dtd">
<svg version="1.0" xmlns="http://www.w3.org/2000/svg"
 width="1335.000000pt" height="765.000000pt" viewBox="0 0 1335.000000 765.000000"
 preserveAspectRatio="xMidYMid meet">
<metadata>
Created by potrace 1.16, written by Peter Selinger 2001-2019
</metadata>
<g transform="translate(0.000000,765.000000) scale(0.100000,-0.100000)"
fill="#000000" stroke="none">
<path d="M7844 6758 c-28 -26 -57 -66 -75 -106 -16 -35 -41 -79 -56 -97 -65
-76 -142 -194 -201 -308 -105 -199 -134 -259 -152 -312 -10 -27 -48 -113 -85
-190 -149 -313 -183 -387 -235 -510 -90 -213 -109 -257 -119 -269 -6 -7 -26
-53 -45 -103 -20 -50 -51 -122 -69 -159 -19 -38 -42 -91 -52 -119 -10 -27 -38
-92 -62 -143 -23 -52 -43 -101 -43 -109 0 -14 -69 -184 -105 -258 -8 -16 -28
-66 -44 -111 -16 -44 -38 -100 -49 -125 -42 -91 -102 -257 -137 -374 -10 -33
-23 -71 -29 -84 -16 -36 -287 -320 -349 -366 -28 -22 -82 -68 -120 -102 -68
-63 -81 -71 -92 -53 -7 11 40 116 77 176 28 44 58 133 58 172 0 37 -25 55 -65
48 -27 -5 -56 -30 -142 -124 -194 -210 -383 -384 -467 -432 -73 -41 -188 -54
-231 -26 l-26 17 23 41 c34 61 114 122 188 142 41 12 75 30 101 53 45 41 57
61 88 152 18 52 20 69 11 96 -23 69 -73 63 -220 -28 -69 -44 -145 -102 -192
-147 -137 -132 -201 -181 -398 -300 -53 -32 -75 -43 -185 -96 -71 -33 -126
-40 -158 -20 -23 16 -24 20 -15 59 5 22 13 46 18 52 5 5 15 29 23 52 8 23 45
88 83 144 38 55 74 109 79 119 6 10 16 24 22 32 19 22 33 98 22 124 -15 41
-46 29 -131 -51 -45 -41 -132 -116 -195 -167 -63 -51 -153 -128 -201 -170 -91
-82 -164 -134 -297 -213 -201 -120 -273 -156 -445 -222 -55 -21 -87 -26 -204
-30 -157 -6 -243 10 -283 53 -12 13 -26 24 -31 24 -5 0 -17 9 -28 21 -10 12
-31 27 -46 35 -31 16 -57 62 -83 149 -11 33 -21 62 -24 65 -3 3 -6 25 -7 50 0
25 -2 59 -3 75 -1 17 -3 47 -3 68 0 20 0 52 0 70 -1 17 2 59 6 92 4 33 7 72 7
88 0 15 4 27 9 27 5 0 12 17 15 38 7 39 24 89 56 158 10 23 19 45 19 50 0 8
122 253 201 404 48 91 171 290 179 290 4 0 11 10 17 23 16 34 211 288 325 423
97 113 357 373 375 375 4 0 28 27 53 59 29 39 57 63 78 71 18 6 69 43 113 82
44 40 110 88 147 107 37 20 85 45 107 57 75 40 240 113 255 113 8 0 35 11 60
24 25 13 56 27 70 31 14 4 52 20 85 35 87 41 118 48 235 55 82 6 114 4 145 -8
22 -8 52 -18 67 -21 38 -9 46 -45 23 -110 -19 -54 -39 -86 -178 -286 -139
-199 -184 -260 -255 -345 -92 -110 -375 -397 -442 -448 -71 -54 -219 -178
-290 -243 -30 -28 -67 -54 -81 -57 -36 -9 -44 -43 -16 -62 43 -27 70 -27 118
-1 40 23 145 107 174 141 6 6 42 36 80 67 122 97 398 368 516 505 116 135 169
203 249 323 25 37 58 83 73 101 41 49 112 161 126 201 6 18 23 54 36 81 21 38
25 62 25 128 0 81 0 81 -37 116 -73 67 -77 68 -252 43 -176 -25 -324 -61 -361
-89 -35 -25 -93 -53 -170 -82 -36 -13 -93 -40 -126 -60 -34 -21 -77 -44 -95
-52 -19 -8 -63 -33 -99 -56 -36 -22 -89 -55 -117 -72 -29 -17 -56 -35 -59 -40
-3 -5 -57 -46 -121 -91 -63 -44 -148 -110 -188 -147 -40 -36 -109 -95 -154
-131 -122 -98 -365 -366 -466 -515 -30 -44 -87 -128 -127 -186 -138 -203 -237
-367 -238 -398 0 -8 -6 -22 -14 -30 -18 -20 -162 -310 -202 -406 -16 -38 -32
-71 -36 -73 -5 -2 -8 -19 -8 -39 0 -19 -10 -74 -22 -121 -21 -83 -27 -202 -18
-382 4 -92 50 -206 112 -278 15 -18 28 -38 28 -45 0 -19 129 -97 178 -108 24
-5 53 -14 64 -20 87 -47 281 -48 460 -3 101 26 312 114 370 156 35 25 167 105
208 126 14 7 85 58 158 112 124 93 171 119 159 88 -2 -7 -12 -50 -22 -96 -17
-76 -17 -83 -1 -100 9 -10 16 -23 16 -29 0 -6 17 -22 38 -35 29 -18 51 -23
107 -23 59 0 80 5 130 31 119 62 262 162 316 223 53 57 100 88 120 75 5 -3 9
-35 9 -72 0 -57 4 -71 24 -93 13 -14 39 -31 57 -38 19 -7 45 -18 59 -23 14 -6
61 -10 105 -9 136 4 251 61 444 221 47 39 88 70 93 70 4 0 6 -23 4 -52 -5 -69
22 -98 89 -98 80 0 104 17 320 216 108 100 205 166 205 140 0 -13 -32 -139
-41 -163 -12 -31 -49 -271 -49 -316 0 -43 40 -77 90 -77 39 0 46 6 193 153 84
84 168 163 187 176 19 14 62 50 95 81 33 31 98 84 145 118 47 33 101 74 121
91 19 17 48 35 62 40 27 11 57 6 57 -9 0 -5 36 -26 81 -48 l80 -40 82 18 c92
21 175 52 227 87 19 13 38 23 43 23 5 0 37 -14 73 -31 60 -29 70 -31 137 -25
110 9 149 16 184 32 17 8 36 14 42 14 22 0 169 79 174 94 4 10 19 16 41 16 24
0 46 10 78 36 109 89 104 122 -9 65 -32 -16 -92 -37 -133 -47 -41 -9 -79 -20
-85 -24 -25 -18 -152 -52 -197 -52 -78 0 -82 15 -19 73 30 28 86 72 126 99 89
60 135 113 135 156 0 30 -20 57 -50 66 -14 4 -114 -59 -230 -147 -77 -58 -266
-186 -320 -217 -59 -34 -201 -78 -250 -78 -56 0 -90 15 -90 41 0 12 -11 37
-26 56 -41 54 -86 46 -179 -32 -27 -23 -66 -50 -84 -60 -19 -10 -69 -50 -112
-89 -42 -39 -118 -107 -169 -151 -52 -44 -119 -103 -149 -131 -77 -69 -171
-144 -182 -144 -20 0 -30 51 -15 83 16 36 25 74 33 132 2 22 13 58 23 80 11
22 28 72 39 110 32 112 54 167 89 214 18 24 32 51 32 59 0 25 41 84 114 163
39 41 80 93 91 115 11 21 36 58 55 80 42 50 120 193 120 221 0 11 10 33 23 49
59 75 181 320 192 386 4 24 17 59 30 80 23 35 75 153 75 170 0 4 14 37 30 71
17 35 30 74 30 85 0 12 13 50 29 84 15 35 33 87 40 116 6 29 17 63 25 75 17
26 61 144 87 237 10 36 27 89 38 118 12 29 21 59 21 68 0 23 63 167 107 244
31 56 93 223 93 253 0 15 9 36 19 46 18 18 51 97 51 122 0 5 27 65 59 132 32
67 78 167 101 222 23 55 48 110 56 122 8 12 14 30 15 40 0 10 8 31 18 48 14
24 15 35 7 60 -22 60 -59 61 -122 3z m-345 -915 c-12 -38 -37 -104 -55 -149
-18 -45 -44 -114 -58 -155 -14 -41 -39 -112 -57 -159 -17 -47 -35 -104 -40
-128 -27 -135 -304 -849 -397 -1026 -23 -44 -42 -83 -42 -87 0 -3 -18 -33 -39
-65 -21 -33 -54 -88 -72 -124 -66 -132 -177 -277 -193 -252 -6 10 28 153 44
180 15 26 78 170 107 242 14 36 29 69 34 74 5 6 9 20 9 32 0 13 4 25 9 28 5 3
12 17 15 31 3 13 23 62 45 107 21 46 44 101 51 123 12 38 114 272 165 380 51
106 75 164 75 182 0 10 9 32 21 48 20 29 79 150 79 161 0 7 44 101 151 321 44
89 79 170 79 180 0 19 9 36 54 104 38 56 44 37 15 -48z"/>
<path d="M10945 5640 c-11 -5 -38 -9 -61 -9 -22 -1 -44 -4 -48 -8 -4 -4 -40
-8 -79 -9 -40 0 -94 -5 -122 -12 -70 -16 -203 -41 -245 -46 -19 -3 -53 -9 -75
-14 -116 -28 -241 -52 -266 -52 -15 0 -38 -4 -51 -9 -13 -5 -59 -17 -103 -26
-44 -9 -93 -21 -110 -25 -106 -30 -196 -52 -310 -75 -128 -27 -243 -62 -298
-91 -26 -15 -29 -14 -47 8 -11 13 -19 26 -20 30 0 4 -9 12 -20 18 -30 16 -74
-11 -97 -62 -21 -44 -29 -69 -56 -168 -9 -30 -31 -107 -50 -170 -19 -63 -42
-155 -51 -205 -9 -49 -25 -112 -36 -140 -10 -27 -30 -86 -43 -130 -14 -44 -37
-114 -51 -155 -14 -41 -34 -109 -46 -150 -29 -103 -111 -363 -175 -555 -30
-88 -57 -181 -61 -205 -4 -25 -13 -57 -20 -72 -8 -15 -14 -39 -14 -54 0 -15
-8 -52 -19 -83 -30 -89 -41 -147 -41 -210 0 -78 15 -119 48 -128 46 -11 57 6
62 98 3 46 9 90 14 98 16 26 33 115 26 136 -5 12 -3 26 4 35 7 8 18 35 25 60
13 49 14 52 72 215 21 61 39 120 39 131 0 12 8 32 18 45 16 21 92 239 92 262
0 5 6 23 14 40 17 39 44 120 61 190 8 29 47 151 87 272 41 121 80 249 88 283
7 35 23 79 36 97 12 18 25 48 29 66 10 45 27 79 89 171 28 43 60 80 71 84 11
3 43 17 70 29 56 26 217 74 345 103 47 11 121 30 165 42 44 13 98 26 120 30
133 25 165 32 210 45 28 7 82 19 120 25 39 7 86 16 105 21 131 32 217 49 295
59 89 11 141 21 220 42 55 15 135 19 135 8 0 -13 66 -5 84 9 20 17 36 5 36
-25 0 -54 -35 -101 -235 -315 -28 -30 -113 -110 -190 -179 -77 -69 -155 -143
-175 -164 -19 -21 -78 -80 -129 -130 -92 -88 -164 -162 -357 -365 -83 -88
-168 -200 -206 -276 -23 -44 -88 -220 -88 -237 0 -20 78 -108 95 -108 7 0 15
-6 18 -14 3 -7 18 -16 34 -19 41 -7 185 -61 222 -83 70 -41 34 -101 -177 -300
-205 -194 -314 -282 -787 -638 -33 -25 -85 -65 -115 -90 -49 -40 -124 -90
-435 -293 -49 -32 -103 -70 -120 -84 -16 -15 -46 -36 -65 -47 -160 -91 -368
-231 -405 -272 -17 -19 -16 -19 21 -13 21 4 77 32 128 65 50 32 94 58 99 58 5
0 26 13 47 30 21 16 42 30 48 30 5 0 26 11 46 25 21 14 65 37 98 50 33 14 75
35 92 48 17 13 96 59 176 102 80 43 168 95 195 115 28 21 64 41 80 44 17 4 53
24 80 45 28 21 88 65 135 99 79 57 243 177 361 264 27 20 69 53 92 75 24 21
86 73 138 115 119 96 348 335 391 408 68 114 71 130 29 192 -31 46 -95 85
-161 99 -192 41 -255 66 -246 99 4 11 9 30 12 43 4 12 15 32 25 45 10 13 23
40 30 60 6 20 22 48 34 62 13 14 41 48 62 76 78 105 397 445 427 457 11 4 84
72 161 150 77 79 181 178 231 221 164 140 373 386 425 502 49 108 34 158 -54
182 -53 14 -221 15 -252 2z"/>
</g>
</svg>
